<svg xmlns="http://www.w3.org/2000/svg" width="610" height="143" viewBox="0 0 610 143"><path fill="none" stroke="#00969B" stroke-linecap="round" stroke-linejoin="round" stroke-miterlimit="10" stroke-dasharray="3,5" d="M79.9 67.6c.3.1 117.5-66.6 246.9-12M342.5 97.9c-.3-.1-146.5 76.2-248.5 19.2"/><line fill="none" stroke="#00969B" stroke-linecap="round" stroke-linejoin="round" stroke-miterlimit="10" stroke-dasharray="3,5" x1="326.8" y1="83.5" x2="249.5" y2="85.5"/><line fill="none" stroke="#00969B" stroke-linecap="round" stroke-linejoin="round" stroke-miterlimit="10" stroke-dasharray="3,5" x1="167.6" y1="84.4" x2="103.8" y2="83.9"/><g stroke="#00969B" stroke-miterlimit="10"><path fill="#F7F7F6" stroke-width="1.5" d="M396.5 77.5l-7.3-4.2 8.3-18.3c.1-.3 0-.7-.3-1.1-.6-1-2.1-1.7-3.2-1.6-.6 0-1 .3-1.1.6l-8.1 17.7-31.5-18.2c-1.2-.7-3.1-.8-4.1-.2l-21.7 12.6c-.4.2-.6.6-.7.9v9.1c0 .5.4.9 1 1.3L371 101c1.2.7 3.1.8 4.1.2l21.7-12.6c.4-.2.6-.5.7-.9v-9.1c0-.2-.3-.7-1-1.1z"/><path fill="none" stroke-width=".5" d="M375.1 93c-1 .6-2.9.5-4.1-.2l-43.2-24.9c-1.2-.7-1.4-1.8-.3-2.4l21.7-12.6c1-.6 2.9-.5 4.1.2L396.5 78c1.2.7 1.4 1.8.3 2.4L375.1 93z"/><line fill="none" stroke-width=".5" x1="326.8" y1="66.6" x2="326.8" y2="75.5"/><line fill="none" stroke-width=".5" x1="397.6" y1="79.6" x2="397.6" y2="88.5"/><path fill="none" stroke-width=".5" d="M337.5 77.7c0 .9-.7 1.3-1.5.8s-1.5-1.6-1.5-2.5c0-.9.7-1.3 1.5-.8.9.4 1.5 1.6 1.5 2.5zM332.5 74.9c0 .9-.7 1.3-1.5.8s-1.5-1.6-1.5-2.5c0-.9.7-1.3 1.5-.8.9.5 1.5 1.6 1.5 2.5zM342.5 80.5c0 .9-.7 1.3-1.5.8s-1.5-1.6-1.5-2.5c0-.9.7-1.3 1.5-.8.9.4 1.5 1.5 1.5 2.5zM395.9 55.6c-.9.1-2-.5-2.5-1.2s-.2-1.4.7-1.4 2 .5 2.5 1.2c.5.6.2 1.3-.7 1.4z"/></g><g stroke="#00969B" stroke-miterlimit="10"><path fill="#F7F7F6" stroke-width=".5" d="M107.6 90.5L62.8 65.1c-.7-.4-1.2-.6-1.7-.7l1.8-1c1.2-.7 2.3-2.5 2.4-4l2.8-55.6c0-.9-.3-1.4-.7-1.6-1.6-.7-3.1-1.6-4.9-.8l-.9.4L9.5 31.5c-1.4.8-2.5 2.7-2.6 4.3L4.1 91.5c0 2.2 1.1 2.3 2.7 3.1l.5.2c0 .2-.2 5.7-.2 5.7-.1.4 0 .8.4 1L52.3 127c1.3.8 3.4.8 4.7.1l23-12.9 26.7-15c.8-.5 1.4-4 1.4-4l.4-3.2v-.2c0-.5-.3-1-.9-1.3z"/><g fill="none"><path stroke-width="1.5" d="M107.6 91L62.8 65.6c-.7-.4-1.2-.6-1.7-.7l1.8-1c1.2-.7 2.3-2.5 2.4-4l2.8-55.6c0-.9-.3-1.4-.7-1.6-1.6-.7-3.1-1.6-4.9-.8l-.9.4L9.5 32.1c-1.4.8-2.5 2.7-2.6 4.3L4.1 92c0 2.2 1.1 2.3 2.7 3.1l.5.2c-.1.2-.3 5.7-.3 5.7-.1.4 0 .8.4 1l44.8 25.4c1.3.8 3.4.8 4.7.1l23-12.9 26.7-15c.8-.5 1.4-4 1.4-4l.4-3.2v-.2c.1-.4-.2-.8-.8-1.2z"/><path stroke-width=".5" d="M87.1 101.1s-.8-.5-1.9-1.2c-3.4-2.1-10.3-6.2-10.3-6.2-.2-.1-.7-.5-1.2-.2l-9.5 5.3-4.4 2.5c-.3.2-.3.6.2.9l11.8 7c.8.5 1 .3 1.5.1l13.7-7.7c.3-.2.3-.3.1-.5zm-14.3 7.4l-.2.1c-.2 0-.2-.1-.4-.2l-11.1-6.6L66 99l8.1-4.5c.1 0 .3.2.3.2l8.7 5.2 2.4 1.4-12.7 7.2zM13.5 86.6l46.1-26.4c1.4-.8 2.6-2.8 2.6-4.4L64.5 13c.1-1.8-1.2-2.9-2.8-1.9L15.5 37.4c-1.4.8-2.6 2.8-2.6 4.4l-2.2 42.8c-.1 1.9 1.2 2.9 2.8 2zm.3-44.7c.1-1.4 1.1-3 2.1-3.6l45.8-26.2c.5.1.8.6.7 1.5l-2.1 41.1c-.1 1.4-1.1 3.2-2.3 3.8L13 84.2c-.7.4-1.2.3-1.5 0l2.3-42.3z"/><path stroke-width=".5" d="M108.5 92.2c0-.4-.3-.9-.9-1.2L62.8 65.6c-.7-.4-1.2-.6-1.7-.7l1.8-1c1.2-.7 2.3-2.5 2.4-4l2.8-55.6c0-.9-.3-1.4-.7-1.6-1.6-.7-3.1-1.6-4.9-.8l-.9.4L9.5 32.1c-1.4.8-2.5 2.7-2.6 4.3L4.1 92c0 2.2 1.1 2.3 2.7 3.1l.5.2c-.1.2-.3 5.7-.3 5.7-.1.4 0 .8.4 1l44.8 25.4c1.3.8 3.4.8 4.7.1l23-12.9 26.7-15c.8-.5 1.4-4 1.4-4l.4-3.2.1-.2zM67.2 4.3l-2.8 55.6c-.1 1.2-1 2.7-1.9 3.3L14.8 90.4 8.7 94c-.5.3-.8.3-.7-.6l.2-3.3 2.7-52.4c.1-1.2 1-2.7 1.9-3.3L66.5 3.6c.5-.2.8-.2.7.7zm40 88.3l-50.3 28.2c-.9.5-2.4.5-3.4-.1L8.8 95.3c-.2-.1-.3-.2-.4-.3l.3-.1.2-.1c.1 0 .2-.1.3-.2l50.5-28.9c.7-.2 1.5-.3 2.8.5l44.8 25.4c.5.6.4.7-.1 1z"/><path stroke-width=".5" d="M28 94.4l-.6-.4c-1.1-.7-3.3-1.9-3.3-1.9-.1 0-.2-.2-.4-.1l-3 1.7-1.4.8c-.1.1-.1.2.1.3l3.7 2.2c.3.2.3.1.5 0l4.3-2.4c.2-.1.2-.2.1-.2zM34.2 90.8l-.6-.4c-1.1-.7-3.3-1.9-3.3-1.9-.1 0-.2-.2-.4-.1l-3 1.7-1.4.8c-.1.1-.1.2.1.3l3.7 2.2c.3.2.3.1.5 0l4.3-2.4c.1-.1.1-.2.1-.2zM40.3 87.2l-.6-.4c-1.1-.7-3.3-1.9-3.3-1.9-.1 0-.2-.2-.4-.1l-3 1.7-1.4.8c-.1.1-.1.2.1.3l3.7 2.2c.3.2.3.1.5 0l4.3-2.4c.2-.1.2-.1.1-.2zM46.5 83.7l-.6-.4c-1.1-.7-3.3-1.9-3.3-1.9-.1 0-.2-.2-.4-.1l-3 1.7-1.4.8c-.1.1-.1.2.1.3l3.7 2.2c.3.2.3.1.5 0l4.3-2.4c.1-.1.1-.2.1-.2zM52.6 80.1l-.6-.4c-1.1-.7-3.3-1.9-3.3-1.9-.1 0-.2-.2-.4-.1l-3 1.7-1.3.8c-.1.1-.1.2.1.3l3.7 2.2c.3.2.3.1.5 0l4.3-2.4c.1-.1.1-.2 0-.2zM58.8 76.5l-.6-.4c-1.1-.7-3.3-1.9-3.3-1.9-.1 0-.2-.2-.4-.1l-3 1.7-1.4.8c-.1.1-.1.2.1.3l3.7 2.2c.3.2.3.1.5 0l4.3-2.4c.1-.1.1-.1.1-.2zM64.9 72.9l-.6-.4c-1.1-.7-3.3-1.9-3.3-1.9-.1 0-.2-.2-.4-.1l-3 1.7-1.4.8c-.1.1-.1.2.1.3l3.7 2.2c.3.2.3.1.5 0l4.3-2.4c.1-.1.1-.1.1-.2zM35.5 98.6l-.6-.4c-1.1-.7-3.3-1.9-3.3-1.9-.1 0-.2-.2-.4-.1l-3 1.7-1.4.8c-.1.1-.1.2.1.3l3.7 2.2c.3.2.3.1.5 0l4.3-2.4c.2-.1.2-.2.1-.2zM41.7 95l-.6-.4c-1.1-.7-3.3-1.9-3.3-1.9-.1 0-.2-.2-.4-.1l-3 1.7-1.4.8c-.1.1-.1.2.1.3l3.7 2.2c.3.2.3.1.5 0l4.3-2.4c.1-.1.1-.1.1-.2zM47.8 91.5l-.6-.4c-1.1-.7-3.3-1.9-3.3-1.9-.1 0-.2-.2-.4-.1l-3 1.7-1.4.8c-.1.1-.1.2.1.3l3.7 2.2c.3.2.3.1.5 0l4.3-2.4.1-.2zM53.9 87.9l-.6-.4c-1.1-.7-3.3-1.9-3.3-1.9-.1 0-.2-.2-.4-.1l-3 1.7-1.3.8c-.1.1-.1.2.1.3l3.7 2.2c.3.2.3.1.5 0l4.3-2.4c.1-.1.1-.2 0-.2zM60.1 84.3l-.6-.4c-1.1-.7-3.3-1.9-3.3-1.9-.1 0-.2-.2-.4-.1l-3 1.7-1.4.8c-.1.1-.1.2.1.3l3.7 2.2c.3.2.3.1.5 0l4.3-2.4c.1-.1.1-.2.1-.2zM66.2 80.7l-.6-.4c-1.1-.7-3.3-1.9-3.3-1.9-.1 0-.2-.2-.4-.1L59 80l-1.4.8c-.1.1-.1.2.1.3l3.7 2.2c.3.2.3.1.5 0l4.3-2.4c.1-.1.1-.1 0-.2zM72.4 77.2l-.6-.4c-1.1-.7-3.3-1.9-3.3-1.9-.1 0-.2-.2-.4-.1l-3 1.7-1.4.8c-.1.1-.1.2.1.3l3.7 2.2c.3.2.3.1.5 0l4.3-2.4c.1-.1.1-.2.1-.2zM43 102.8l-.6-.4c-1.1-.7-3.3-1.9-3.3-1.9-.1 0-.2-.2-.4-.1l-3 1.7-1.4.8c-.1.1-.1.2.1.3l3.7 2.2c.3.2.3.1.5 0l4.3-2.4c.1-.1.1-.1.1-.2zM49.1 99.2l-.6-.4c-1.1-.7-3.3-1.9-3.3-1.9-.1 0-.2-.2-.4-.1l-3 1.7-1.4.8c-.1.1-.1.2.1.3l3.7 2.2c.3.2.3.1.5 0l4.3-2.4c.2-.1.2-.1.1-.2zM55.3 95.7l-.6-.4c-1.1-.7-3.3-1.9-3.3-1.9-.1 0-.2-.2-.4-.1L48 95l-1.4.8c-.1.1-.1.2.1.3l3.7 2.2c.3.2.3.1.5 0l4.3-2.4c.1-.1.1-.2.1-.2zM61.4 92.1l-.6-.4c-1.1-.7-3.3-1.9-3.3-1.9-.1 0-.2-.2-.4-.1l-3 1.7-1.4.8c-.1.1-.1.2.1.3l3.7 2.2c.3.2.3.1.5 0l4.3-2.4c.2-.1.2-.2.1-.2zM67.6 88.5l-.6-.4c-1.1-.7-3.3-1.9-3.3-1.9-.1 0-.2-.2-.4-.1l-3 1.7-1.4.8c-.1.1-.1.2.1.3l3.7 2.2c.3.2.3.1.5 0l4.3-2.4c.1-.1.1-.1.1-.2zM73.7 85l-.6-.4c-1.1-.7-3.3-1.9-3.3-1.9-.1 0-.2-.2-.4-.1l-3 1.7-1.4.7c-.1.1-.1.2.1.3l3.7 2.2c.3.2.3.1.5 0l4.3-2.4c.1 0 .1-.1.1-.1zM79.8 81.4l-.6-.4c-1.1-.7-3.3-1.9-3.3-1.9-.1 0-.2-.2-.4-.1l-3 1.7-1.4.8c-.1.1-.1.2.1.3l3.7 2.2c.3.2.3.1.5 0l4.3-2.4c.2-.1.2-.2.1-.2z"/></g></g><g fill="#00969B"><path d="M223.6 83.7c-.2.1-.4.2-.5.2-1.6.6-3.5.4-4.7.1.2.7.2 1.8-1 2.6-.1.1-.3.2-.5.3-.9.4-2 .6-3.2.5-1.2-.1-2.3-.4-3.1-.9-.8-.5-1.2-1.2-1.1-1.9.1-.7.6-1.3 1.5-1.7.2-.1.4-.2.5-.2 1.6-.6 3.5-.4 4.7-.1-.2-.7-.2-1.8 1-2.6.1-.1.3-.2.5-.3.9-.4 2-.6 3.2-.5 1.2.1 2.3.4 3.1.9.8.5 1.2 1.2 1.1 1.9-.2.7-.7 1.3-1.5 1.7m-5.7-.6c.8.2 2.8.6 4.3.1.1 0 .3-.1.4-.2 1.2-.6 1.3-1.6.3-2.3-1-.7-2.9-.8-4.1-.2-.1.1-.2.1-.3.2-1.3.7-.9 1.9-.6 2.4m-6 .6c-1.2.6-1.3 1.6-.3 2.3 1 .7 2.9.8 4.1.2.1-.1.2-.1.3-.2 1.2-.8.8-2 .5-2.4-.8-.2-2.8-.6-4.3-.1 0 .1-.1.2-.3.2"/><polygon points="215.2,84.7 213.2,85.7 212.6,85.3 214.6,84.3"/><polygon points="221.2,81.1 220.5,81.4 219.9,81 219.3,81.3 219.9,81.7 219.2,82.1 219.8,82.5 220.5,82.1 221.1,82.6 221.8,82.2 221.1,81.8 221.8,81.5"/></g><g fill="none" stroke="#00969B" stroke-width=".5" stroke-miterlimit="10"><polygon points="207.1,96.7 205.8,95.9 214.9,91.5 216.4,92.1"/><polyline points="205.7,95.9 205.7,98 207,98.8 216.4,94.1 216.5,92.1"/><line x1="207.1" y1="96.7" x2="207" y2="98.7"/></g><g fill="none" stroke="#00969B" stroke-width=".5" stroke-miterlimit="10"><polygon points="189.4,81.9 188.1,81.1 195.7,77.5 197.2,78.1"/><polyline points="188,81.1 188,83.2 189.4,84 197.3,80 197.3,78.1"/><line x1="189.4" y1="81.9" x2="189.3" y2="84"/></g><g fill="none" stroke="#00969B" stroke-width=".5" stroke-miterlimit="10"><polygon points="200.3,76.7 199,75.9 208.2,71.5 209.6,72.1"/><polyline points="199,75.9 198.9,78 200.3,78.8 209.6,74.1 209.7,72.1"/><line x1="200.3" y1="76.7" x2="200.3" y2="78.7"/></g><g fill="none" stroke="#00969B" stroke-width=".5" stroke-miterlimit="10"><polygon points="218.7,91 217.4,90.3 228.4,85 229.7,85.7"/><polyline points="217.4,90.2 217.3,92.4 218.7,93.1 229.6,87.7 229.7,85.7"/><line x1="218.7" y1="91" x2="218.7" y2="93.1"/></g><g><path fill="#00969B" d="M214.1 67.2l25.5 17.4-34.8 17.2-4.1-3-2.9-.3-16.2-12.3.2-1.4-1.8-1.4 34.1-16.2m.1-1.8l-.8.4-34.1 16.3-2.3 1.1 2 1.5 1.1.8-.1.5-.1.9.7.5 16.2 12.3.3.3h.4l2.5.2 3.7 2.7.7.5.8-.4L240 85.8l2.3-1.1-2.1-1.4-25.5-17.4-.5-.5z"/></g><g><path fill="#F7F7F6" stroke="#00969B" stroke-width="1.5" stroke-miterlimit="10" d="M477 72.5v-4.8h-8c-1.7 0-3.1 1.3-3.2 3V95c0 1.8 1.4 3.2 3.2 3.2H494.9c1.8 0 3.2-1.5 3.2-3.3V72.5H477z"/><g fill="#00969B"><path d="M514.1 87.7c0-2.1-4.9-1.6-4.9-5 0-1.7 1.5-2.9 3.5-2.9 1.2 0 2.1.2 3.1.8l-.6 1.9c-.5-.5-1.5-1-2.4-1-.9 0-1.5.4-1.5 1.1 0 1.9 4.9 1.3 4.9 5 0 1.9-1.7 3-3.9 3-1.1 0-2.3-.3-3.3-.9l.7-1.9c.7.7 1.8 1.2 2.7 1.2.9-.2 1.7-.5 1.7-1.3zM520.2 79.9v4.5l.8-.2 2.8-4.2h2.3l-3.5 5 3.9 5.4h-2.6l-3.1-4.5-.6.1v4.3h-2.1V79.9h2.1zM534.4 79.9v1.7h-4.7v2.5h4.2v1.7h-4.2v2.7h4.7v1.8h-6.8V79.9h6.8zM543.7 81.7h-3.1v8.7h-2.1v-8.7h-3.2V80h8.4v1.7zM552.8 89.7c-1.1.6-2.2.8-3.4.8-3.1 0-4.9-1.8-4.9-5.3 0-3.4 2.2-5.4 5.2-5.4 1.1 0 2.3.3 3.1.8l-.7 1.9c-.8-.6-1.7-.9-2.5-.9-1.8 0-2.9 1.2-2.9 3.6 0 2.4 1 3.7 2.9 3.7 1 0 2-.4 2.7-.9l.5 1.7zM563 79.9v10.4h-2.1V86h-4.3v4.4h-2.1V79.9h2.1v4.2h4.3v-4.2h2.1zM569.7 90.4h-4.3V79.9h3.7c2.5 0 3.3 1.1 3.3 2.5 0 .8-.3 1.8-1.7 2.3 1.9.2 2.4 1.4 2.4 2.4 0 2.2-1.2 3.3-3.4 3.3zm-1-8.7h-1.2v2.5h1.1c1.1 0 1.6-.4 1.6-1.3s-.5-1.2-1.5-1.2zm-1.2 4.1v2.9h1.8c1.2 0 1.8-.4 1.8-1.4 0-1-.7-1.5-2-1.5h-1.6zM584.4 85.2c0 3.1-1.9 5.4-5.1 5.4-3 0-5-1.9-5-5.3 0-3.1 1.9-5.4 5-5.4 3-.1 5.1 1.5 5.1 5.3zm-2.2 0c0-2.6-.9-3.7-2.9-3.7-1.9 0-2.8 1.1-2.8 3.7 0 2.3.8 3.6 2.8 3.6 2 0 2.9-1.2 2.9-3.6zM595.7 85.2c0 3.1-1.9 5.4-5.1 5.4-3 0-5-1.9-5-5.3 0-3.1 1.9-5.4 5-5.4 3-.1 5.1 1.5 5.1 5.3zm-2.2 0c0-2.6-.9-3.7-2.9-3.7-1.9 0-2.8 1.1-2.8 3.7 0 2.3.8 3.6 2.8 3.6 1.9 0 2.9-1.2 2.9-3.6zM599.6 79.9v4.5l.8-.2 2.8-4.2h2.3l-3.5 5 3.9 5.4h-2.6l-3.1-4.5-.6.1v4.3h-2.1V79.9h2.1z"/></g></g><line fill="none" stroke="#00969B" stroke-linecap="round" stroke-linejoin="round" stroke-miterlimit="10" stroke-dasharray="3,5" x1="408.7" y1="82.5" x2="456" y2="82.5"/><line fill="none" stroke="#00969B" stroke-width=".5" stroke-miterlimit="10" stroke-dasharray="1,1" x1="394.4" y1="47.5" x2="393.2" y2="34.2"/><line fill="none" stroke="#00969B" stroke-width=".5" stroke-miterlimit="10" stroke-dasharray="1,1" x1="397.4" y1="49.6" x2="403.6" y2="37.8"/><line fill="none" stroke="#00969B" stroke-width=".5" stroke-miterlimit="10" stroke-dasharray="1,1" x1="400.7" y1="51.5" x2="412.8" y2="45.9"/></svg>